<?xml version="1.0" encoding="UTF-8"?>
<svg id="Layer_1" data-name="Layer 1" xmlns="http://www.w3.org/2000/svg" viewBox="0 0 1178 346.98">
  <defs>
    <style>
      .cls-1 {
        fill: #222240;
      }

      .cls-1, .cls-2 {
        stroke-width: 0px;
      }

      .cls-2 {
        fill: #e37682;
      }
    </style>
  </defs>
  <g>
    <path class="cls-1" d="M351.82,131.09c-2.19-8.28-6.04-15.76-11.56-22.43-5.52-6.67-13.06-12.08-22.61-16.22-9.55-4.14-21.69-6.21-36.41-6.21-9.97,0-19.83,1.41-29.59,4.13,8.3,6.38,13.74,16.31,13.74,27.59,0,.71-.17,1.37-.21,2.07,4.12-.88,8.32-1.34,12.6-1.34,10.35,0,19.27,2.48,26.75,7.42,7.48,4.95,11.22,12.6,11.22,22.95v4.14c-12.89,0-26.06.63-39.52,1.9-13.46,1.27-25.71,3.85-36.76,7.77-11.05,3.91-20.08,9.55-27.1,16.91-7.02,7.37-10.53,17.26-10.53,29.68,0,9.66,2.01,17.78,6.04,24.33,4.02,6.56,9.09,11.85,15.19,15.88,6.09,4.03,12.77,6.9,20.02,8.63,7.25,1.73,14.2,2.59,20.88,2.59,11.74,0,22.2-2.36,31.41-7.07,9.2-4.71,15.88-10.76,20.02-18.12h1.03v21.05h38.66v-100.78c0-8.28-1.09-16.56-3.28-24.85ZM315.75,187c0,13.11-3.68,23.47-11.04,31.06-7.37,7.59-18.18,11.39-32.44,11.39-3.45,0-6.91-.34-10.36-1.03-3.45-.69-6.56-1.84-9.32-3.45-2.76-1.61-5-3.74-6.73-6.38-1.72-2.64-2.59-5.92-2.59-9.84,0-6.21,2.07-11.1,6.21-14.67,4.14-3.57,9.32-6.33,15.53-8.28,6.21-1.95,13-3.22,20.36-3.8,7.36-.57,14.38-.86,21.05-.86h9.32v5.87Z"/>
    <path class="cls-1" d="M230.47,139.08c11.68,0,21.14-9.46,21.14-21.14s-9.46-21.14-21.14-21.14-21.13,9.46-21.13,21.14,9.46,21.14,21.13,21.14Z"/>
  </g>
  <g>
    <path class="cls-1" d="M140.03,68.28c13.92-1.04,24.36-13.17,23.31-27.09s-13.17-24.36-27.09-23.32c-13.92,1.04-24.36,13.17-23.31,27.09,1.04,13.92,13.17,24.36,27.09,23.31Z"/>
    <path class="cls-1" d="M142.98,135.42c-7.4-4.75-15.4-8.42-24.01-11.01-8.62-2.58-16.92-4.84-24.91-6.79-7.04-1.55-13.51-3.14-19.4-4.78-5.89-1.63-10.95-3.68-15.17-6.13-4.22-2.45-7.63-5.54-10.21-9.27-2.59-3.73-4.09-8.35-4.5-13.85-.45-5.97.49-11.17,2.81-15.61,2.32-4.44,5.45-8.14,9.38-11.08,3.93-2.94,8.37-5.24,13.33-6.88,4.95-1.64,9.95-2.65,15-3.03,3.76-.28,7.55-.1,11.35.41-.04-.4-.12-.79-.15-1.2-1.01-13.5,4.55-25.95,13.94-34.3-8.74-1.37-17.35-1.83-25.78-1.2-11.01.82-21.75,3.07-32.2,6.74-10.46,3.67-19.65,8.74-27.59,15.22-7.94,6.48-14.15,14.38-18.64,23.72C1.74,65.7-.04,76.56.89,88.95c.86,11.47,3.41,20.92,7.66,28.33,4.25,7.41,9.5,13.54,15.74,18.38,6.24,4.84,13.15,8.59,20.74,11.25,7.58,2.67,15.13,4.87,22.64,6.61,7.76,1.96,15.17,3.83,22.22,5.6,7.05,1.78,13.22,4.03,18.5,6.75,5.28,2.72,9.57,6.09,12.87,10.11,3.3,4.02,5.19,9.25,5.67,15.67.5,6.66-.41,12.31-2.71,16.99-2.31,4.67-5.47,8.66-9.49,11.96-4.02,3.3-8.63,5.78-13.81,7.44-5.19,1.66-10.3,2.67-15.35,3.05-6.12.46-12.4-.16-18.81-1.64.04.35.1.68.13,1.03,1.04,13.95-4.92,26.78-14.88,35.12,11.81,2.47,23.68,3.26,35.64,2.37,11.93-.89,23.17-3.35,33.71-7.37,10.54-4.02,19.59-9.54,27.14-16.56,7.55-7.03,13.37-15.59,17.46-25.71,4.09-10.11,5.64-21.71,4.66-34.79-.89-11.93-3.88-21.74-8.95-29.44-5.08-7.69-11.31-13.92-18.7-18.67Z"/>
    <path class="cls-1" d="M23.39,208.39c-13.92,1.04-24.36,13.17-23.32,27.09,1.04,13.92,13.17,24.36,27.09,23.31,13.92-1.04,24.36-13.17,23.31-27.09-1.04-13.92-13.17-24.36-27.09-23.32Z"/>
  </g>
  <path class="cls-1" d="M416.42,274.44c0,4.83-.23,9.37-.69,13.63-.46,4.25-1.5,7.99-3.11,11.22-1.61,3.22-3.91,5.75-6.9,7.6-2.99,1.84-6.9,2.76-11.73,2.76-.98,0-2.22-.13-3.37-.21,2.64,4.91,4.27,10.44,4.27,16.4,0,7.07-2.13,13.63-5.75,19.12,2.88.32,5.76.58,8.64.58,12.42,0,22.49-1.96,30.2-5.87,7.71-3.92,13.8-9.15,18.29-15.7,4.49-6.56,7.53-14.27,9.14-23.13,1.61-8.86,2.42-18.24,2.42-28.13V97.04h-41.42v177.4Z"/>
  <path class="cls-2" d="M359.97,304.7c-11.67,0-21.14,9.46-21.14,21.13s9.46,21.14,21.14,21.14,21.14-9.46,21.14-21.14-9.46-21.13-21.14-21.13Z"/>
  <path class="cls-2" d="M437.21,66.32c14.09,0,25.51-11.42,25.51-25.51s-11.42-25.51-25.51-25.51-25.51,11.42-25.51,25.51,11.42,25.51,25.51,25.51Z"/>
  <g>
    <path class="cls-1" d="M659.64,131.09c-2.19-8.28-6.04-15.76-11.56-22.43-5.52-6.67-13.06-12.08-22.61-16.22-9.55-4.14-21.69-6.21-36.41-6.21-9.97,0-19.83,1.41-29.59,4.13,8.3,6.38,13.74,16.31,13.74,27.59,0,.71-.17,1.37-.21,2.07,4.12-.88,8.32-1.34,12.6-1.34,10.35,0,19.27,2.48,26.75,7.42,7.48,4.95,11.22,12.6,11.22,22.95v4.14c-12.89,0-26.06.63-39.52,1.9-13.46,1.27-25.71,3.85-36.76,7.77-11.05,3.91-20.08,9.55-27.1,16.91-7.02,7.37-10.53,17.26-10.53,29.68,0,9.66,2.01,17.78,6.04,24.33,4.02,6.56,9.09,11.85,15.19,15.88,6.09,4.03,12.77,6.9,20.02,8.63,7.25,1.73,14.2,2.59,20.88,2.59,11.74,0,22.2-2.36,31.41-7.07,9.2-4.71,15.88-10.76,20.02-18.12h1.03v21.05h38.66v-100.78c0-8.28-1.09-16.56-3.28-24.85ZM623.57,187c0,13.11-3.68,23.47-11.04,31.06-7.37,7.59-18.18,11.39-32.44,11.39-3.45,0-6.91-.34-10.36-1.03-3.45-.69-6.56-1.84-9.32-3.45-2.76-1.61-5-3.74-6.73-6.38-1.72-2.64-2.59-5.92-2.59-9.84,0-6.21,2.07-11.1,6.21-14.67,4.14-3.57,9.32-6.33,15.53-8.28,6.21-1.95,13-3.22,20.36-3.8,7.36-.57,14.38-.86,21.05-.86h9.32v5.87Z"/>
    <path class="cls-1" d="M538.29,139.08c11.68,0,21.14-9.46,21.14-21.14s-9.46-21.14-21.14-21.14-21.13,9.46-21.13,21.14,9.46,21.14,21.13,21.14Z"/>
  </g>
  <g>
    <path class="cls-2" d="M830.56,159.47c-13.94,0-25.24,11.3-25.24,25.24s11.3,25.24,25.24,25.24,25.24-11.3,25.24-25.24-11.3-25.24-25.24-25.24Z"/>
    <polygon class="cls-1" points="851.2 14.27 813.56 14.27 707.23 258.7 755.91 258.7 778.01 202.77 792.85 165.49 831.17 66.06 868.8 165.49 884 202.77 906.78 258.7 956.49 258.7 851.2 14.27"/>
  </g>
  <path class="cls-1" d="M1172.13,143.81c-3.91-10.58-9.44-19.79-16.57-27.61-7.14-7.82-15.65-13.98-25.54-18.47-9.9-4.48-20.71-6.73-32.44-6.73-7.59,0-14.38.86-20.36,2.59-5.99,1.72-11.22,3.85-15.7,6.38-4.49,2.54-8.34,5.3-11.56,8.28-3.23,2.99-5.87,5.87-7.94,8.63h-1.04V49.33c-5.76,4.18-12.79,6.73-20.45,6.73s-15.12-2.73-20.97-7.16v212.61h39.35v-24.85h.69c5.75,9.66,13.74,17.03,23.99,22.09,10.24,5.06,21.23,7.59,32.96,7.59,12.65,0,23.99-2.36,34-7.08,10.01-4.72,18.52-11.05,25.54-18.99,7.02-7.94,12.42-17.25,16.22-27.95,3.8-10.7,5.7-22.14,5.7-34.34s-1.96-23.58-5.87-34.17ZM1140.15,197.31c-1.96,6.44-4.89,12.2-8.8,17.25-3.91,5.07-8.86,9.21-14.84,12.43-5.99,3.22-13,4.83-21.05,4.83-7.59,0-14.38-1.55-20.36-4.66-5.99-3.11-11.1-7.19-15.36-12.25-4.26-5.06-7.48-10.76-9.67-17.09-2.19-6.32-3.28-12.71-3.28-19.16s1.09-12.88,3.28-19.33c2.19-6.44,5.4-12.19,9.67-17.26,4.26-5.06,9.37-9.2,15.36-12.42,5.98-3.22,12.77-4.83,20.36-4.83,8.05,0,15.07,1.55,21.05,4.66,5.98,3.11,10.93,7.19,14.84,12.25,3.91,5.06,6.84,10.76,8.8,17.08,1.95,6.33,2.94,12.72,2.94,19.16s-.98,12.89-2.94,19.33Z"/>
  <path class="cls-2" d="M1020.53,42.27c11.68,0,21.14-9.46,21.14-21.14s-9.46-21.13-21.14-21.13-21.13,9.46-21.13,21.13,9.46,21.14,21.13,21.14Z"/>
</svg>